<svg width="310" height="329" viewBox="0 0 310 329" fill="none" xmlns="http://www.w3.org/2000/svg">
<path fill-rule="evenodd" clip-rule="evenodd" d="M262.045 121.881V98.6617L154.753 51.0813L144.235 55.7458V272.925L154.753 277.589L165.272 272.925V176.172H193.376V154.715H165.272V79.1524L215.379 101.276V250.704L236.416 241.374V110.565L262.045 121.881ZM283.969 244.132V244.269L154.753 301.572L25.538 244.269V244.132L24.9271 243.861V84.8082L25.538 84.5373V84.4014L154.753 27.0984L283.969 84.4014V84.5372L284.58 84.8082V243.861L283.969 244.132ZM71.0838 88.1861L100.858 185.025V74.9824L121.894 65.6532V263.017L100.858 253.688V252.685L99.7556 253.023L68.5109 151.401V239.344L47.4742 230.014V98.6562L71.0838 88.1861ZM309.244 259.904V68.7653L154.753 0.253601L0.262939 68.7653V259.904L154.753 328.416L309.244 259.904Z" fill="white"/>
</svg>
